# xmcd
# Track frame offsets:
# 150
# 33662
# 45678
# 66775
# 79291
# 92630
# 117371
# 129409
# 141698
# 161831
#
# Disc length: 2461 seconds
# Revision: 0
# Processed by: cddbd v1.4PL0 Copyright (c) Steve Scherf et al.
# Submitted via: VisiTrax 2.9.5.181 - For more info visit www.synapsa.com
#
DISCID=92099b0a
DTITLE=Crosby, Still and Nash - Crosby, Still and Nash
DYEAR=1966
DGENRE=Country
TTITLE0=Suite: Judy Blue Eyes
TTITLE1=Marrakesh Express
TTITLE2=Guinnevere
TTITLE3=You Don't Have To Cry
TTITLE4=Pre-Road Downs
TTITLE5=Wooden Ships
TTITLE6=Lady Of The Island
TTITLE7=Helplessly Hoping
TTITLE8=Long Time Gone
TTITLE9=49 Bye-Byes
EXTD=
EXTT0=
EXTT1=
EXTT2=
EXTT3=
EXTT4=
EXTT5=
EXTT6=
EXTT7=
EXTT8=
EXTT9=
PLAYORDER=
